<?xml version="1.0" standalone="no"?>
<!DOCTYPE svg PUBLIC "-//W3C//DTD SVG 20010904//EN"
 "http://www.w3.org/TR/2001/REC-SVG-20010904/DTD/svg10.dtd">
<svg version="1.0" xmlns="http://www.w3.org/2000/svg"
 width="256.000000pt" height="256.000000pt" viewBox="0 0 256.000000 256.000000"
 preserveAspectRatio="xMidYMid meet">

<g transform="translate(0.000000,256.000000) scale(0.100000,-0.100000)"
fill="#000000" stroke="none">
<path d="M1155 2554 c-168 -25 -303 -64 -430 -125 -300 -143 -534 -405 -650
-729 -80 -220 -93 -488 -36 -725 85 -350 338 -670 657 -829 72 -35 223 -96
241 -96 1 0 9 14 16 31 l12 31 12 -23 c6 -13 14 -31 16 -40 9 -27 155 -43 347
-36 91 3 182 11 203 17 l38 11 -36 51 -36 50 65 68 c36 37 66 63 66 57 0 -7
-11 -59 -25 -116 -14 -57 -24 -105 -23 -106 9 -8 191 61 269 101 211 109 384
269 513 477 133 213 202 513 177 768 -12 123 -16 136 -37 118 -8 -6 -16 -10
-17 -8 -2 2 -10 16 -19 30 -9 14 -45 39 -80 57 -35 17 -74 40 -85 50 -22 18
-22 18 21 31 23 6 50 9 61 5 12 -5 16 -4 12 3 -13 21 5 43 34 43 17 0 29 5 29
13 0 8 -24 61 -52 118 -183 365 -504 606 -909 684 -84 16 -297 27 -354 19z
m-156 -694 c12 -38 35 -98 51 -133 33 -71 129 -222 136 -214 3 2 -15 33 -39
68 -45 64 -79 126 -98 177 -14 36 -5 25 73 -93 77 -116 115 -156 127 -136 6 8
16 11 31 6 17 -5 21 -4 15 5 -5 8 -4 11 2 7 6 -4 18 2 28 13 21 24 38 25 54 6
10 -11 2 -17 -42 -31 -77 -24 -128 -55 -155 -95 -27 -41 -42 -48 -99 -49 -32
-1 -45 4 -53 19 -18 33 -81 43 -200 31 -140 -15 -140 -15 -140 10 0 21 3 21
128 17 l129 -5 -14 28 c-30 60 -40 147 -28 239 7 47 16 96 20 109 7 24 44 91
50 91 2 0 13 -31 24 -70z m141 -22 c25 -35 68 -85 96 -113 28 -27 63 -66 78
-87 l27 -36 -23 -8 c-12 -4 -35 -16 -50 -27 -33 -25 -35 -23 -81 63 -53 98
-116 270 -99 270 4 0 27 -28 52 -62z m240 -137 l61 -70 -33 -9 -33 -9 -37 76
c-56 116 -52 117 42 12z m-567 -153 c14 -44 14 -48 -1 -48 -10 0 -40 -3 -69
-6 l-52 -7 5 39 c11 82 25 137 46 186 l21 50 18 -83 c9 -46 24 -105 32 -131z
m75 -6 c18 -29 32 -54 32 -56 0 -7 -72 12 -81 21 -13 13 -29 117 -28 183 l0
55 23 -75 c12 -41 37 -99 54 -128z m603 54 l28 -24 -56 -7 c-42 -5 -58 -3 -64
7 -15 23 -10 27 60 47 2 1 16 -10 32 -23z m-848 -82 c4 -37 2 -43 -20 -53 -24
-11 -25 -10 -20 11 3 13 9 43 13 67 8 49 18 39 27 -25z m1188 16 c30 -17 61
-89 67 -155 4 -52 1 -68 -22 -110 -15 -28 -42 -70 -61 -95 -19 -25 -40 -53
-47 -63 -7 -9 -27 -21 -45 -26 -31 -9 -31 -9 -23 19 16 56 35 85 55 83 26 -2
52 13 66 40 11 19 10 21 -3 9 -19 -16 -26 -7 -32 42 -3 19 -10 45 -16 56 -7
14 -8 20 0 20 6 0 13 -7 16 -15 9 -23 23 -18 30 11 5 19 0 32 -20 53 -24 25
-25 29 -11 41 8 7 17 11 18 9 1 -2 13 -26 27 -54 l25 -50 3 39 c7 83 -20 113
-70 76 l-28 -21 0 32 c0 20 8 37 23 50 26 22 24 21 48 9z m-254 -22 c23 -22
33 -12 11 10 -9 9 -8 12 5 12 13 0 17 -9 18 -42 l1 -43 13 29 13 30 7 -33 c6
-31 0 -123 -11 -163 -9 -30 -82 -50 -205 -56 -136 -5 -153 1 -171 61 -6 23
-18 51 -25 63 -14 23 -9 48 15 77 16 18 38 24 27 7 -3 -5 -1 -10 6 -10 8 0 8
-4 1 -13 -6 -7 -7 -18 -3 -25 6 -9 15 -3 34 21 29 38 72 45 90 15 15 -24 -9
-51 -39 -44 -21 6 -22 4 -14 -23 19 -68 45 -91 103 -91 52 0 82 37 81 103 -1
29 -7 64 -14 78 l-13 24 23 -20 c12 -11 29 -33 38 -50 l15 -30 10 23 c9 19 5
30 -21 67 -34 49 -32 58 5 23z m-257 -22 c0 -2 -8 -10 -17 -17 -16 -13 -17
-12 -4 4 13 16 21 21 21 13z m-660 -41 c0 -8 0 -18 1 -22 0 -8 -63 -24 -69
-19 -8 8 13 39 32 46 30 13 36 12 36 -5z m262 -61 c28 -15 30 -15 25 0 -8 21
2 20 25 -1 14 -13 18 -31 18 -88 0 -48 -4 -76 -13 -84 -21 -17 -99 -42 -91
-29 5 8 1 9 -12 3 -10 -4 -37 -11 -59 -15 -30 -6 -34 -8 -15 -10 16 -1 7 -6
-25 -12 -74 -14 -115 1 -145 53 -12 23 -18 39 -11 35 15 -10 13 3 -4 34 -21
36 -19 77 4 90 27 14 30 13 23 -12 -3 -14 -2 -19 6 -14 9 5 9 0 2 -19 -7 -18
-7 -33 0 -46 13 -22 30 -25 30 -4 0 26 33 83 50 88 37 10 64 -25 38 -51 -9 -9
-16 -8 -31 6 -20 17 -20 16 -13 -17 8 -45 49 -97 82 -105 32 -8 70 14 86 50 8
18 9 39 2 74 -10 45 -9 48 8 39 27 -15 23 15 -4 34 -30 21 -15 21 24 1z m846
-88 c2 -15 -3 -35 -11 -44 -20 -24 -62 -120 -82 -188 -35 -121 -117 -247 -224
-347 -76 -70 -150 -107 -213 -107 -110 0 -360 131 -453 237 -44 51 -159 273
-141 273 2 0 17 -5 34 -11 38 -13 140 2 252 37 84 26 118 51 127 94 4 21 14
32 36 39 55 20 90 14 117 -19 22 -27 35 -32 100 -42 92 -13 239 -4 300 17 48
17 90 50 90 72 0 7 5 13 10 13 7 0 8 -13 4 -36 -5 -26 -3 -35 4 -30 6 4 14 22
18 42 7 40 27 40 32 0z m-1240 13 c-27 -15 -25 -100 3 -125 16 -14 23 -15 26
-6 9 25 18 11 18 -28 0 -43 -8 -51 -24 -22 -8 12 -10 13 -11 3 0 -19 29 -51
47 -51 27 0 69 -29 81 -55 29 -64 7 -59 -91 22 -84 69 -97 95 -97 194 0 59 12
79 45 79 18 -1 18 -1 3 -11z m96 -188 c-7 -7 -34 21 -34 36 0 10 6 8 19 -8 11
-13 18 -26 15 -28z m326 -502 c-14 -12 -46 -32 -72 -45 -39 -20 -48 -29 -49
-52 0 -27 -1 -27 -11 -4 -13 26 -25 28 -32 5 -2 -10 -4 -5 -3 10 2 25 11 32
87 67 97 44 116 48 80 19z m145 -168 c48 -52 51 -53 93 -47 23 3 83 26 133 51
49 25 92 45 95 45 8 0 -48 -83 -109 -163 -36 -46 -77 -87 -101 -100 -38 -21
-42 -27 -47 -73 -12 -92 -19 -92 -75 1 l-50 85 10 66 c9 65 6 94 -31 224 -2 8
4 4 14 -10 10 -14 40 -49 68 -79z m-331 -192 c-15 -54 -29 -97 -31 -95 -2 1 8
51 22 109 14 59 26 119 27 134 1 20 3 16 5 -10 3 -23 -7 -79 -23 -138z m476
-112 c0 -4 -9 -26 -21 -49 -26 -50 -39 -37 -39 39 l0 52 30 -17 c16 -9 30 -21
30 -25z"/>
<path d="M1445 1270 l-30 -8 30 0 c17 0 39 3 50 8 l20 9 -20 -1 c-11 0 -33 -4
-50 -8z"/>
<path d="M1146 1215 c-7 -18 12 -126 24 -139 11 -12 80 40 80 59 0 19 -68 95
-85 95 -7 0 -15 -7 -19 -15z"/>
<path d="M1320 879 c-19 -5 -54 -6 -77 -3 -28 4 -57 1 -83 -10 -22 -9 -52 -16
-65 -16 -14 0 -25 -5 -25 -11 0 -13 90 -6 215 18 80 15 132 33 90 32 -11 -1
-36 -5 -55 -10z"/>
</g>
</svg>
