<svg xmlns="http://www.w3.org/2000/svg" version="1.1" xmlns:xlink="http://www.w3.org/1999/xlink" xmlns:svgjs="http://svgjs.com/svgjs" width="591.3509965019891" height="524.8154803181606"><g transform="matrix(0.5854960361405833,0,0,0.7679883071454405,37.95156253023674,16.633461639090314)"><svg xmlns="http://www.w3.org/2000/svg" version="1.1" xmlns:xlink="http://www.w3.org/1999/xlink" xmlns:svgjs="http://svgjs.com/svgjs" width="808" height="616"><svg xmlns="http://www.w3.org/2000/svg" version="1.1" xmlns:xlink="http://www.w3.org/1999/xlink" xmlns:svgjs="http://svgjs.com/svgjs" width="808" height="616" class="class-d89847xuj"><svg xmlns="http://www.w3.org/2000/svg" width="808" height="616" class="class-d89847xuj">
    <path d="M462.5 142C646.073 74 820 45.035 746 356.5 718.617 471.757 613.854 530.912 462.5 571 303.927 613 56 592.965 179 356.5 233.668 251.4 315.677 196.387 462.5 142zm-8-13C638.073 61 812 32.035 738 343.5 710.617 458.757 605.854 517.912 454.5 558 295.927 600 48 579.965 171 343.5 225.668 238.4 307.677 183.387 454.5 129z" fill-rule="evenodd" class="fill-color-0"></path>
    <path data-name="Ellipse 1 copie" d="M462.5 142C646.073 74 820 45.035 746 356.5 718.617 471.757 613.854 530.912 462.5 571 303.927 613 56 592.965 179 356.5 233.668 251.4 315.677 196.387 462.5 142zm-273.6-26.06c41.745-15.464 81.3-22.05 64.469 48.778-6.227 26.21-30.05 39.662-64.469 48.778-36.06 9.551-92.44 5-64.469-48.778 12.433-23.9 31.082-36.41 64.469-48.778zm0 0c41.745-15.464 81.3-22.05 64.469 48.778-6.227 26.21-30.05 39.662-64.469 48.778-36.06 9.551-92.44 5-64.469-48.778 12.433-23.9 31.082-36.41 64.469-48.778z" fill-rule="evenodd" class="fill-color-0"></path>
    <path data-name="Ellipse 1 copie 2" d="M462.5 142C646.073 74 820 45.035 746 356.5 718.617 471.757 613.854 530.912 462.5 571 303.927 613 56 592.965 179 356.5 233.668 251.4 315.677 196.387 462.5 142zm-273.6-26.06c41.745-15.464 81.3-22.05 64.469 48.778-6.227 26.21-30.05 39.662-64.469 48.778-36.06 9.551-92.44 5-64.469-48.778 12.433-23.9 31.082-36.41 64.469-48.778zm106.533-61.217c13.061-4.838 25.437-6.9 20.171 15.262-1.948 8.2-9.4 12.41-20.171 15.262-11.283 2.988-28.924 1.563-20.172-15.262 3.89-7.478 9.725-11.392 20.172-15.262z" fill-rule="evenodd" class="fill-color-0"></path>
</svg></svg><style>.class-d89847xuj .fill-skin {
  fill: #f1d9b1;
}
.class-d89847xuj .fill-skin-shadow {
  fill: #ebc78d;
}
.class-d89847xuj .fill-hair {
  fill: #516074;
}
.class-d89847xuj .fill-hair-shadow {
  fill: #495668;
}
.class-d89847xuj .fill-white {
  fill: #f0f0f0;
}
.class-d89847xuj .fill-white-shadow {
  fill: #d8d8d8;
}
.class-d89847xuj .fill-white-shadow-extra {
  fill: #c2c2c2;
}
.class-d89847xuj .stop-color-white {
  stop-color: #f0f0f0;
}
.class-d89847xuj .stop-color-white-shadow {
  stop-color: #d8d8d8;
}
.class-d89847xuj .stop-color-white-shadow-extra {
  stop-color: #c2c2c2;
}
.class-d89847xuj .stroke-white {
  stroke: #f0f0f0;
}
.class-d89847xuj .stroke-white-shadow {
  stroke: #d8d8d8;
}
.class-d89847xuj .stroke-white-shadow-extra {
  stroke: #b5b5b5;
}
.class-d89847xuj .fill-yellow {
  fill: #f8cb12;
}
.class-d89847xuj .fill-yellow-shadow {
  fill: #f1c307;
}
.class-d89847xuj .fill-yellow-shadow-extra {
  fill: #e0b607;
}
.class-d89847xuj .stop-color-yellow {
  stop-color: #f8cb12;
}
.class-d89847xuj .stop-color-yellow-shadow {
  stop-color: #f1c307;
}
.class-d89847xuj .stop-color-yellow-shadow-extra {
  stop-color: #e0b607;
}
.class-d89847xuj .fill-green {
  fill: #598784;
}
.class-d89847xuj .fill-green-shadow {
  fill: #507977;
}
.class-d89847xuj .fill-green-shadow-extra {
  fill: #486d6b;
}
.class-d89847xuj .stop-color-green {
  stop-color: #598784;
}
.class-d89847xuj .stop-color-green-shadow {
  stop-color: #507977;
}
.class-d89847xuj .stop-color-green-shadow-extra {
  stop-color: #486d6b;
}
.class-d89847xuj .stroke-green {
  stroke: #598784;
}
.class-d89847xuj .stroke-green-shadow {
  stroke: #507977;
}
.class-d89847xuj .stroke-green-shadow-extra {
  stroke: #436564;
}
.class-d89847xuj .fill-red {
  fill: #ce3827;
}
.class-d89847xuj .fill-red-shadow {
  fill: #b93223;
}
.class-d89847xuj .fill-red-shadow-extra {
  fill: #a62d1f;
}
.class-d89847xuj .stop-color-red {
  stop-color: #ce3827;
}
.class-d89847xuj .stop-color-red-shadow {
  stop-color: #b93223;
}
.class-d89847xuj .stop-color-red-shadow-extra {
  stop-color: #a62d1f;
}
.class-d89847xuj .fill-orange {
  fill: #f8cb12;
}
.class-d89847xuj .fill-orange-shadow {
  fill: #e8bc07;
}
.class-d89847xuj .fill-orange-shadow-extra {
  fill: #d0a906;
}
.class-d89847xuj .stop-color-orange {
  stop-color: #f8cb12;
}
.class-d89847xuj .stop-color-orange-shadow {
  stop-color: #e8bc07;
}
.class-d89847xuj .stop-color-orange-shadow-extra {
  stop-color: #d0a906;
}
.class-d89847xuj .fill-blue {
  fill: #3b7ded;
}
.class-d89847xuj .fill-blue-shadow {
  fill: #1f6bea;
}
.class-d89847xuj .fill-blue-shadow-extra {
  fill: #145eda;
}
.class-d89847xuj .stop-color-blue {
  stop-color: #3b7ded;
}
.class-d89847xuj .stop-color-blue-shadow {
  stop-color: #1f6bea;
}
.class-d89847xuj .stop-color-blue-shadow-extra {
  stop-color: #145eda;
}
.class-d89847xuj .fill-color-0 {
  fill: #516074;
}
.class-d89847xuj .fill-color-0-shadow {
  fill: #495668;
}
.class-d89847xuj .fill-color-0-shadow-extra {
  fill: #3d4857;
}
.class-d89847xuj .stop-color-color-0 {
  stop-color: #516074;
}
.class-d89847xuj .fill-color-1 {
  fill: #d5cbc7;
}
.class-d89847xuj .fill-color-1-shadow {
  fill: #c3b5af;
}
.class-d89847xuj .fill-color-1-shadow-extra {
  fill: #a9958c;
}
.class-d89847xuj .fill-color-2 {
  fill: #8cb4b1;
}
.class-d89847xuj .fill-color-2-shadow {
  fill: #78a7a4;
}
.class-d89847xuj .fill-color-2-shadow-extra {
  fill: #5f918e;
}
.class-d89847xuj .fill-color-3 {
  fill: #f7ecd9;
}
.class-d89847xuj .fill-color-3-shadow {
  fill: #efd9b2;
}
.class-d89847xuj .fill-color-3-shadow-extra {
  fill: #e3bd7a;
}
.class-d89847xuj .fill-body-detail {
  fill: #ffffff;
}
.class-d89847xuj .stroke-color-0 {
  stroke: #516074;
}
.class-d89847xuj .stroke-color-0-shadow {
  stroke: #495668;
}
.class-d89847xuj .stroke-color-0-shadow-extra {
  stroke: #3d4857;
}
.class-d89847xuj .stroke-color-1 {
  stroke: #d5cbc7;
}
.class-d89847xuj .stroke-color-1-shadow {
  stroke: #c3b5af;
}
.class-d89847xuj .stroke-color-1-shadow-extra {
  stroke: #a9958c;
}
.class-d89847xuj .stroke-color-2 {
  stroke: #8cb4b1;
}
.class-d89847xuj .stroke-color-2-shadow {
  stroke: #78a7a4;
}
.class-d89847xuj .stroke-color-2-shadow-extra {
  stroke: #5f918e;
}
.class-d89847xuj .stroke-color-3 {
  stroke: #f7ecd9;
}
.class-d89847xuj .stroke-color-3-shadow {
  stroke: #efd9b2;
}
.class-d89847xuj .stroke-color-3-shadow-extra {
  stroke: #e3bd7a;
}</style></svg></g><g transform="matrix(4.837622680808157,0,0,4.837622680808162,0.007774328929770036,-0.10046467353524235)"><svg xmlns="http://www.w3.org/2000/svg" version="1.1" xmlns:xlink="http://www.w3.org/1999/xlink" xmlns:svgjs="http://svgjs.com/svgjs" width="122.24" height="73.18"><svg xmlns="http://www.w3.org/2000/svg" version="1.1" xmlns:xlink="http://www.w3.org/1999/xlink" xmlns:svgjs="http://svgjs.com/svgjs" width="122.24" height="73.18" class="class-cnr7qrl06"><svg xmlns="http://www.w3.org/2000/svg" viewBox="0 0 122.24 73.18" class="class-cnr7qrl06">
    <g data-name="Layer 2">
        <g data-name="Layer 1">
            <path d="M37.55 46.65A38.42 38.42 0 0192.29 11.9a38.39 38.39 0 10-44.08 61.28 38.24 38.24 0 01-10.66-26.53z" class="fill-color-0"></path>
            <path d="M56.63.86s8.9.38 5.29 4-17.79 5.87-21.83 28.07c0 0 14.68-35.19 52.2-21 0-.03-11.9-15.71-35.66-11.07zM38.64 55.72s.45 10.15-6.37 3.5c0 0 5.62 9.74 15.94 14 0-.04-6.98-8.09-9.57-17.5z" class="fill-color-0-shadow"></path>
            <path d="M9.34 31.49h3.31a1.37 1.37 0 011.08.52l.09.11a1.39 1.39 0 01-.1 1.84 1.4 1.4 0 01-1.62.24l-1.68-.88a1.33 1.33 0 01-.63-.71zM51.37 38.86l1.9-.53 2.9.79a5.57 5.57 0 013.89 3.77l.21.69H54.7l-3.59-1.69-.11-.07a1.62 1.62 0 01.37-2.96zM22.18 17.3a.73.73 0 01-.93.93l-1.57-.58 1.5-.75a.73.73 0 011 .4zM67.32 59.58l.62.89a1.4 1.4 0 001.16.61h1.83a1.41 1.41 0 001.41-1.4 1.42 1.42 0 00-.81-1.28l-1.3-.6a1.17 1.17 0 00-.24-.09l-1.16-.3a1.41 1.41 0 00-1.51 2.17zM66 49.25l.23-.06a1.08 1.08 0 00.21-2 1.1 1.1 0 00-.51-.13h-.26a1.08 1.08 0 00-.9 1.67v.07a1.05 1.05 0 001.23.45zM89.66 48.46h.79a1 1 0 01.86.47 1 1 0 01-.86 1.55h-.79a1 1 0 01-.58-.18 1 1 0 01.58-1.84zM97 59.62l1.41 2.05h1.77v-1.03l-.99-.45-2.19-.57zM101.93 46.69h3.32a1.38 1.38 0 011.07.51l.09.11a1.38 1.38 0 01-.1 1.84 1.36 1.36 0 01-1.62.24l-1.69-.88a1.35 1.35 0 01-.64-.71z" class="fill-color-0"></path>
            <path d="M13.72 34a1.39 1.39 0 00.1-1.84l-.09-.16a1.31 1.31 0 00-.53-.4l-1.47.78.18 1.71.19.1a1.4 1.4 0 001.62-.19zM21.25 18.23a.73.73 0 00.93-.93.71.71 0 00-.33-.37l-1 1.16zM54.7 43.58h5.57l-.21-.69a5.59 5.59 0 00-1.84-2.72l-3 .79L54 42.2l-3-.38.13.07zM66 49.25l.23-.06A1.06 1.06 0 0067 48l-2.17.78a1.05 1.05 0 001.17.47z" class="fill-color-1"></path>
            <path d="M121.56 58.55h.15a.73.73 0 00.15-1.34.73.73 0 00-.35-.09h-.18a.73.73 0 00-.61 1.13.73.73 0 00.84.3z" class="fill-color-0"></path>
            <path d="M121.56 58.55h.15a.73.73 0 00.52-.78l-1.48.53a.73.73 0 00.81.25zM72.34 59.68a1.4 1.4 0 00-.8-1.27l-1.84 1.21-2.5-.3c0 .09.07.17.12.26l.62.89a1.4 1.4 0 001.16.61h1.83a1.41 1.41 0 001.41-1.4zM89.08 50.3a1 1 0 00.58.18h.79a1 1 0 00.86-1.55.7.7 0 00-.2-.22l-2.37 1.18a1.1 1.1 0 00.34.41zM103 48.51l1.67.88a1.36 1.36 0 001.62-.24 1.38 1.38 0 00.1-1.84l-.09-.11a1.44 1.44 0 00-.75-.48l-.83 1.08h-2.36a1.35 1.35 0 00.64.71z" class="fill-color-1"></path>
            <path d="M24.93 26.69h3.32a1.38 1.38 0 011.07.51l.09.11a1.38 1.38 0 01-.1 1.84 1.36 1.36 0 01-1.62.24L26 28.51a1.35 1.35 0 01-.64-.71z" class="fill-color-0"></path>
            <path d="M26 28.51l1.67.88a1.36 1.36 0 001.62-.24 1.38 1.38 0 00.1-1.84l-.09-.11a1.44 1.44 0 00-.75-.48l-.83 1.08h-2.34a1.35 1.35 0 00.62.71zM98.41 61.67h1.77v-1.03l-.21-.09-2.05.4.49.72z" class="fill-color-1"></path>
            <path d="M0 17.62l.64.93h.8v-.47l-.45-.2-.99-.26z" class="fill-color-0"></path>
            <path d="M.64 18.55h.8v-.47l-.09-.04-.93.18.22.33z" class="fill-color-1"></path>
        </g>
    </g>
</svg></svg><style>.class-cnr7qrl06 .fill-skin {
  fill: #fdfdfd;
}
.class-cnr7qrl06 .fill-skin-shadow {
  fill: #e3e3e3;
}
.class-cnr7qrl06 .fill-hair {
  fill: #8b8b8b;
}
.class-cnr7qrl06 .fill-hair-shadow {
  fill: #7d7d7d;
}
.class-cnr7qrl06 .fill-white {
  fill: #fdfdfd;
}
.class-cnr7qrl06 .fill-white-shadow {
  fill: #e3e3e3;
}
.class-cnr7qrl06 .fill-white-shadow-extra {
  fill: #cccccc;
}
.class-cnr7qrl06 .stop-color-white {
  stop-color: #fdfdfd;
}
.class-cnr7qrl06 .stop-color-white-shadow {
  stop-color: #e3e3e3;
}
.class-cnr7qrl06 .stop-color-white-shadow-extra {
  stop-color: #cccccc;
}
.class-cnr7qrl06 .stroke-white {
  stroke: #fdfdfd;
}
.class-cnr7qrl06 .stroke-white-shadow {
  stroke: #e3e3e3;
}
.class-cnr7qrl06 .stroke-white-shadow-extra {
  stroke: #bebebe;
}
.class-cnr7qrl06 .fill-yellow {
  fill: #fdfdfd;
}
.class-cnr7qrl06 .fill-yellow-shadow {
  fill: #ececec;
}
.class-cnr7qrl06 .fill-yellow-shadow-extra {
  fill: #dcdcdc;
}
.class-cnr7qrl06 .stop-color-yellow {
  stop-color: #fdfdfd;
}
.class-cnr7qrl06 .stop-color-yellow-shadow {
  stop-color: #ececec;
}
.class-cnr7qrl06 .stop-color-yellow-shadow-extra {
  stop-color: #dcdcdc;
}
.class-cnr7qrl06 .fill-green {
  fill: #c0c0c0;
}
.class-cnr7qrl06 .fill-green-shadow {
  fill: #adadad;
}
.class-cnr7qrl06 .fill-green-shadow-extra {
  fill: #9b9b9b;
}
.class-cnr7qrl06 .stop-color-green {
  stop-color: #c0c0c0;
}
.class-cnr7qrl06 .stop-color-green-shadow {
  stop-color: #adadad;
}
.class-cnr7qrl06 .stop-color-green-shadow-extra {
  stop-color: #9b9b9b;
}
.class-cnr7qrl06 .stroke-green {
  stroke: #c0c0c0;
}
.class-cnr7qrl06 .stroke-green-shadow {
  stroke: #adadad;
}
.class-cnr7qrl06 .stroke-green-shadow-extra {
  stroke: #919191;
}
.class-cnr7qrl06 .fill-red {
  fill: #f3f3f3;
}
.class-cnr7qrl06 .fill-red-shadow {
  fill: #dadada;
}
.class-cnr7qrl06 .fill-red-shadow-extra {
  fill: #c4c4c4;
}
.class-cnr7qrl06 .stop-color-red {
  stop-color: #f3f3f3;
}
.class-cnr7qrl06 .stop-color-red-shadow {
  stop-color: #dadada;
}
.class-cnr7qrl06 .stop-color-red-shadow-extra {
  stop-color: #c4c4c4;
}
.class-cnr7qrl06 .fill-orange {
  fill: #fdfdfd;
}
.class-cnr7qrl06 .fill-orange-shadow {
  fill: #e3e3e3;
}
.class-cnr7qrl06 .fill-orange-shadow-extra {
  fill: #cccccc;
}
.class-cnr7qrl06 .stop-color-orange {
  stop-color: #fdfdfd;
}
.class-cnr7qrl06 .stop-color-orange-shadow {
  stop-color: #e3e3e3;
}
.class-cnr7qrl06 .stop-color-orange-shadow-extra {
  stop-color: #cccccc;
}
.class-cnr7qrl06 .fill-blue {
  fill: #fdfdfd;
}
.class-cnr7qrl06 .fill-blue-shadow {
  fill: #e3e3e3;
}
.class-cnr7qrl06 .fill-blue-shadow-extra {
  fill: #cccccc;
}
.class-cnr7qrl06 .stop-color-blue {
  stop-color: #fdfdfd;
}
.class-cnr7qrl06 .stop-color-blue-shadow {
  stop-color: #e3e3e3;
}
.class-cnr7qrl06 .stop-color-blue-shadow-extra {
  stop-color: #cccccc;
}
.class-cnr7qrl06 .fill-color-0 {
  fill: #8b8b8b;
}
.class-cnr7qrl06 .fill-color-0-shadow {
  fill: #7d7d7d;
}
.class-cnr7qrl06 .fill-color-0-shadow-extra {
  fill: #696969;
}
.class-cnr7qrl06 .stop-color-color-0 {
  stop-color: #8b8b8b;
}
.class-cnr7qrl06 .fill-color-1 {
  fill: #f3f3f3;
}
.class-cnr7qrl06 .fill-color-1-shadow {
  fill: #dadada;
}
.class-cnr7qrl06 .fill-color-1-shadow-extra {
  fill: #b6b6b6;
}
.class-cnr7qrl06 .fill-body-detail {
  fill: #ffffff;
}
.class-cnr7qrl06 .stroke-color-0 {
  stroke: #8b8b8b;
}
.class-cnr7qrl06 .stroke-color-0-shadow {
  stroke: #7d7d7d;
}
.class-cnr7qrl06 .stroke-color-0-shadow-extra {
  stroke: #696969;
}
.class-cnr7qrl06 .stroke-color-1 {
  stroke: #f3f3f3;
}
.class-cnr7qrl06 .stroke-color-1-shadow {
  stroke: #dadada;
}
.class-cnr7qrl06 .stroke-color-1-shadow-extra {
  stroke: #b6b6b6;
}</style></svg></g><g transform="matrix(4.411082451342516,0,0,4.41108245134252,324.8120456243531,83.64970158554738)"><svg xmlns="http://www.w3.org/2000/svg" version="1.1" xmlns:xlink="http://www.w3.org/1999/xlink" xmlns:svgjs="http://svgjs.com/svgjs" width="35.22" height="70.39"><svg xmlns="http://www.w3.org/2000/svg" version="1.1" xmlns:xlink="http://www.w3.org/1999/xlink" xmlns:svgjs="http://svgjs.com/svgjs" width="35.22" height="70.39" class="class-ub5rjmfif"><svg xmlns="http://www.w3.org/2000/svg" viewBox="0 0 35.22 70.39" class="class-ub5rjmfif">
    <g data-name="Layer 2">
        <g data-name="Layer 1">
            <rect width="35.22" height="70.39" rx="7.64" class="fill-color-0-shadow"></rect>
            <path d="M2.8 3.19h29.62v61.34H2.8z" class="fill-color-1-shadow"></path>
            <circle cx="17.61" cy="67.7" r="1.2" class="fill-color-0"></circle>
            <path d="M31.63 0h-28A3.59 3.59 0 000 3.59v15.79l35.22 34.8V3.59A3.59 3.59 0 0031.63 0z" fill-rule="evenodd" class="fill-color-0-shadow"></path>
            <path fill-rule="evenodd" d="M2.8 22.14l29.62 29.27V3.19H2.8v18.95z" class="fill-color-1"></path>
        </g>
    </g>
</svg></svg><style>.class-ub5rjmfif .fill-skin {
  fill: #f1d9b1;
}
.class-ub5rjmfif .fill-skin-shadow {
  fill: #ebc78d;
}
.class-ub5rjmfif .fill-hair {
  fill: #394351;
}
.class-ub5rjmfif .fill-hair-shadow {
  fill: #333c49;
}
.class-ub5rjmfif .fill-white {
  fill: #f0f0f0;
}
.class-ub5rjmfif .fill-white-shadow {
  fill: #d8d8d8;
}
.class-ub5rjmfif .fill-white-shadow-extra {
  fill: #c2c2c2;
}
.class-ub5rjmfif .stop-color-white {
  stop-color: #f0f0f0;
}
.class-ub5rjmfif .stop-color-white-shadow {
  stop-color: #d8d8d8;
}
.class-ub5rjmfif .stop-color-white-shadow-extra {
  stop-color: #c2c2c2;
}
.class-ub5rjmfif .stroke-white {
  stroke: #f0f0f0;
}
.class-ub5rjmfif .stroke-white-shadow {
  stroke: #d8d8d8;
}
.class-ub5rjmfif .stroke-white-shadow-extra {
  stroke: #b5b5b5;
}
.class-ub5rjmfif .fill-yellow {
  fill: #f8cb12;
}
.class-ub5rjmfif .fill-yellow-shadow {
  fill: #f1c307;
}
.class-ub5rjmfif .fill-yellow-shadow-extra {
  fill: #e0b607;
}
.class-ub5rjmfif .stop-color-yellow {
  stop-color: #f8cb12;
}
.class-ub5rjmfif .stop-color-yellow-shadow {
  stop-color: #f1c307;
}
.class-ub5rjmfif .stop-color-yellow-shadow-extra {
  stop-color: #e0b607;
}
.class-ub5rjmfif .fill-green {
  fill: #598784;
}
.class-ub5rjmfif .fill-green-shadow {
  fill: #507977;
}
.class-ub5rjmfif .fill-green-shadow-extra {
  fill: #486d6b;
}
.class-ub5rjmfif .stop-color-green {
  stop-color: #598784;
}
.class-ub5rjmfif .stop-color-green-shadow {
  stop-color: #507977;
}
.class-ub5rjmfif .stop-color-green-shadow-extra {
  stop-color: #486d6b;
}
.class-ub5rjmfif .stroke-green {
  stroke: #598784;
}
.class-ub5rjmfif .stroke-green-shadow {
  stroke: #507977;
}
.class-ub5rjmfif .stroke-green-shadow-extra {
  stroke: #436564;
}
.class-ub5rjmfif .fill-red {
  fill: #ce3827;
}
.class-ub5rjmfif .fill-red-shadow {
  fill: #b93223;
}
.class-ub5rjmfif .fill-red-shadow-extra {
  fill: #a62d1f;
}
.class-ub5rjmfif .stop-color-red {
  stop-color: #ce3827;
}
.class-ub5rjmfif .stop-color-red-shadow {
  stop-color: #b93223;
}
.class-ub5rjmfif .stop-color-red-shadow-extra {
  stop-color: #a62d1f;
}
.class-ub5rjmfif .fill-orange {
  fill: #f8cb12;
}
.class-ub5rjmfif .fill-orange-shadow {
  fill: #e8bc07;
}
.class-ub5rjmfif .fill-orange-shadow-extra {
  fill: #d0a906;
}
.class-ub5rjmfif .stop-color-orange {
  stop-color: #f8cb12;
}
.class-ub5rjmfif .stop-color-orange-shadow {
  stop-color: #e8bc07;
}
.class-ub5rjmfif .stop-color-orange-shadow-extra {
  stop-color: #d0a906;
}
.class-ub5rjmfif .fill-blue {
  fill: #3b7ded;
}
.class-ub5rjmfif .fill-blue-shadow {
  fill: #1f6bea;
}
.class-ub5rjmfif .fill-blue-shadow-extra {
  fill: #145eda;
}
.class-ub5rjmfif .stop-color-blue {
  stop-color: #3b7ded;
}
.class-ub5rjmfif .stop-color-blue-shadow {
  stop-color: #1f6bea;
}
.class-ub5rjmfif .stop-color-blue-shadow-extra {
  stop-color: #145eda;
}
.class-ub5rjmfif .fill-color-0 {
  fill: #394351;
}
.class-ub5rjmfif .fill-color-0-shadow {
  fill: #333c49;
}
.class-ub5rjmfif .fill-color-0-shadow-extra {
  fill: #2b323d;
}
.class-ub5rjmfif .stop-color-color-0 {
  stop-color: #394351;
}
.class-ub5rjmfif .fill-color-1 {
  fill: #a08a80;
}
.class-ub5rjmfif .fill-color-1-shadow {
  fill: #937b6f;
}
.class-ub5rjmfif .fill-color-1-shadow-extra {
  fill: #7b675d;
}
.class-ub5rjmfif .fill-body-detail {
  fill: #ffffff;
}
.class-ub5rjmfif .stroke-color-0 {
  stroke: #394351;
}
.class-ub5rjmfif .stroke-color-0-shadow {
  stroke: #333c49;
}
.class-ub5rjmfif .stroke-color-0-shadow-extra {
  stroke: #2b323d;
}
.class-ub5rjmfif .stroke-color-1 {
  stroke: #a08a80;
}
.class-ub5rjmfif .stroke-color-1-shadow {
  stroke: #937b6f;
}
.class-ub5rjmfif .stroke-color-1-shadow-extra {
  stroke: #7b675d;
}</style></svg></g><g transform="matrix(-1.2135516189158442,0,0,1.2135516189158446,349.0570407244828,151.63387810824273)"><svg xmlns="http://www.w3.org/2000/svg" version="1.1" xmlns:xlink="http://www.w3.org/1999/xlink" xmlns:svgjs="http://svgjs.com/svgjs" width="109.74" height="307.5"><svg xmlns="http://www.w3.org/2000/svg" version="1.1" xmlns:xlink="http://www.w3.org/1999/xlink" xmlns:svgjs="http://svgjs.com/svgjs" width="109.74" height="307.5" class="class-0enojczih"><svg xmlns="http://www.w3.org/2000/svg" viewBox="0 0 109.74 307.5" class="class-0enojczih">
    <g data-name="Layer 2">
        <g data-name="Layer 1">
            <path d="M19.86 85.39a35.11 35.11 0 01-3.53-.45 6.21 6.21 0 01-.62-.14 1.48 1.48 0 01-.29-.12c-.18-.11-.35-.23-.54-.33a6.88 6.88 0 01-2.33-2.18 7.14 7.14 0 01-.37-.73c-.51-1-.56-2.17-1.37-3-1.1-.35-1.25 1.14-1.3 1.77v.87c0 .23-.23.34-.48.31h-.2a1.57 1.57 0 01-.31-.08c-.19-.06-.37-.14-.54-.21A16.08 16.08 0 014.82 79c-.52-.41-1-.82-1.6-1.19a4.49 4.49 0 01-1.11-1.36v-.08C1.43 75.09.58 74.12 0 76.1a11.14 11.14 0 001.54 5.77c2.1 3.62 6.17 6.45 10.6 7.79 2.58.66 5.29.37 7.88 1" class="fill-skin"></path>
            <path d="M17.77 84.12l-2.2-.34s-3.77 4.46-1.16 7.94l2.56.19z" class="fill-body-detail"></path>
            <path d="M62.83 41.43s-3.4-.89-6.9 10.37-9.44 35.57-39.09 31.8c0 0-3.52 6.81-.89 8.69 0 0 34.91 2.3 40.38-10.63z" class="fill-color-0-shadow"></path>
            <path d="M98 128.05c-.27.93-.52 1.86-.78 2.79l-.85 3a96.18 96.18 0 00-3.2 12c-.28 1.58-.13 6 .39 5.93 1 0 .24-2.25 1-3.93.12-.32.24-.64.38-.94a2.55 2.55 0 01.17-.33c.06-.09.17-.29.21-.21 2.06 3.44-1.18 11.39 0 11.68 1.67-1 3.47-4.21 4.52-6.27 2.4-5.05 1-9.12 1.44-15.85v-.43-.12-.23c.2-.6.49-1.17.7-1.78 1.86-4.56 1.38-3.77 3.16-8.37M75.09 51.69l.39-.3h.07c3.32-2.38 6.81-4.52 10.21-6.79.18-.13.55-.19.51-.48a10.76 10.76 0 01-.67-2.85c-.4-4.67-.37-9.38-.88-14-.45-1.36-5.23-2.72-6.68-3.13a2.82 2.82 0 00-.58 0c-.36 0-2.54-.24-1.87.49l-.09.36c-.44-.34-.68 2.72-.88 3.13-.77 3.37-1.31 8-2.86 11.08L70 42.4a61.69 61.69 0 00-2.2 6.6" class="fill-skin"></path>
            <path d="M56.49 111.47s2-64.76 12.41-67.14c0 0 1.57 8 14.51 1.09l-15.35 67.34z" class="fill-body-detail"></path>
            <path d="M68.9 44.33c-10.4 2.38-13.5 67.14-13.5 67.14l6.41.47c-3.75-11.28.37-46.8 3.82-52.68 3.77-6.43 12-6.68 16.61-8.73l1.17-5.11c-12.94 6.89-14.51-1.09-14.51-1.09z" class="fill-color-1"></path>
            <path d="M70.23 278a21.41 21.41 0 00-1.27-8.4l-5.87-15.24 8.15-3.14s5.27 14.06 9.5 20.22c0-.03 1.44 13.47-10.51 6.56z" class="fill-body-detail"></path>
            <path d="M76.66 268.25l3.72 6.14s4.23 5.1 1.56 8.47l-2.39 1.36s-4.68 9.84-8.48 15.28A26.39 26.39 0 0167 304c-2.23 1.55-5.17.44-4.76-.62 2.84-7.5 7.49-18.82 7.75-20.83a21.41 21.41 0 00-.87-7.46l.59-.48c1-.81 1.26-1 2.46-.56l.25.1s5.47-.72 4.24-5.9z" class="fill-color-1-shadow"></path>
            <path d="M63.09 254.33s2 5.16 3.76 9.77c2.48-.16 5.33-1.41 8.38-3.23-2.27-5.08-4-9.68-4-9.68z" class="fill-skin"></path>
            <path d="M71.59 294.34a13.65 13.65 0 002.85-7.9v-16.33h8.74s-.15 15 1.59 22.28c0 0-4.52 12.73-13.18 1.95z" class="fill-body-detail"></path>
            <path d="M84.77 292.39L86 302a2.5 2.5 0 01-2 2.78 40 40 0 01-7.41.89l-.81-.32a6 6 0 00-3.54-.3 124 124 0 01-15.44 2.47 26 26 0 01-6-.43c-2.6-.78-3.56-1.6-2.48-2 7.64-2.43 19.38-11.51 20.81-12.95a3.5 3.5 0 013.25-.93l.74.16a3.57 3.57 0 012.64 2.43l.08.26s5.64 2.53 8.93-1.67z" class="fill-color-1"></path>
            <path d="M74.44 270.11v10.46a19.55 19.55 0 009 0c-.28-5.55-.23-10.46-.23-10.46z" class="fill-skin"></path>
            <path d="M65.5 116.79s-30.84 68-28.08 74.11S64 261.45 64 261.45a81.1 81.1 0 0016.59-6.91s-23.09-50.85-25.63-56.75c-4.71-10.91 6.31-33 16.13-42.18s4.08-32.31 4.08-32.31z" class="fill-color-2-shadow"></path>
            <path d="M70.39 116.79h-9.08l-2 28.52c4.61 3.62 10.4 61.54 9.64 69.54S72 276.09 72 276.09l12.68.71c.09-25.61-.61-65.09-.91-73.71s3.09-65.19 3.09-65.19 1.59-20-1.85-29.08" class="fill-color-2"></path>
            <path d="M70.82 113.61l-.43 8.18s7.85 62.83 6.41 86.7c-2.36 39.09.43 42.48 1.19 68.05l12.11.26c-4.52-28.3-6-65.09-6.33-73.71s3.09-65.19 3.09-65.19 1.59-20-1.85-29.08z" class="fill-color-2-shadow"></path>
            <path d="M85 108.82s-20.29 4.12-30.8-.63l-1.43 15.09 6.51 22.05" class="fill-color-2"></path>
            <path d="M44.22 182.35c3-9.2 10.28-32.72 18.87-43.3 0 0 1.34-12.93-3.5-20.69l-4.93-1.57s-18.29 62.22-17.47 73c3.08.13 5.21-1.79 7.03-7.44z" class="fill-color-2"></path>
            <path d="M60.23 116.81a30.66 30.66 0 008.09 0l.58-2.14-8.11-1.52V110a25.63 25.63 0 01-6.29-1.68l-.5 1.87-1.24 13.09-1.2 4.23 7.48 6.33a1.23 1.23 0 002-1z" class="fill-color-2-shadow"></path>
            <path d="M85.61 110.24s-13.27 4.64-32 0l-.42 2.92s11.27 4.82 33-.08z" class="fill-skin"></path>
            <path d="M62.99 115.28l-5.51-.83-.03-3.47 5.51.83.03 3.47z" class="fill-body-detail"></path>
            <path d="M69.7 111.81h.69v4.99h-.69zM81.933 110.39l.676-.137.999 4.889-.676.138z" class="fill-color-2"></path>
            <path d="M97.34 129.3l-.71 1.84s1.94 2.51 6.77 1.26l.78-2.55z" class="fill-color-1"></path>
            <path d="M104.64 43.83l-14.75-2.4L85.45 38s.83 8.2-9.29 12.28l1.56 3.28C69.87 81.35 64.82 125 64.82 125a5.5 5.5 0 006.18 6l20.65-5.53s-4.53-23.22-2.05-44.75A80.41 80.41 0 0194 68c9.88 40.18 2.06 61.75 2.06 61.75 3.53 2.91 8 1.4 8 1.4 12.41-31.81.58-87.32.58-87.32z" class="fill-color-0"></path>
            <path d="M104.64 43.83l-.38-.07c-2.5 1.13-4.94 3.75-6.37 9.26 0 0 15 39.51 2.17 78.41a9.91 9.91 0 004-.3c12.41-31.79.58-87.3.58-87.3zM89.89 41.43a10.14 10.14 0 01-2.74 6.66s6.57-5.59 8.74-5.69z" class="fill-color-0-shadow"></path>
            <path d="M104.09 131.13a82.32 82.32 0 004.63-19.74L98.19 91.33c2.7 25.12-2.11 38.4-2.11 38.4 3.53 2.91 8.01 1.4 8.01 1.4zM89.63 80.68A80.41 80.41 0 0194 68l-3-6.56a149.74 149.74 0 00-8.74 21.41c-3.58 10.85-5.23 30.6-2.31 45.72l11.67-3.12s-4.47-23.24-1.99-44.77z" class="fill-color-0-shadow"></path>
            <path d="M56.13 110.88l1.09-15.55c2-14 4.51-43.23 8.94-48.35 6-6.89 5.34-6.59 5.34-6.59a106.71 106.71 0 00-10.94.46c-6.94 11.76-5.5 19.12-5 35.62-2.27 17.79-7.69 44.44-7.69 44.44l4.51 4.47a1.51 1.51 0 002.74-.76l.95-13.51" class="fill-color-0"></path>
            <path d="M72.53 37.31a24.57 24.57 0 00-11.39 7.59l1.43 3.22S58.91 70.35 57 100.66c0 0 2.64-34.39 9.74-51.62a7.16 7.16 0 012.54-4.18 5 5 0 001.47-2.18z" class="fill-color-0-shadow"></path>
            <path d="M68.88 6.84s-2.55 4.16-1.75 8.37a4.14 4.14 0 01-.8 3.24L65.05 20a1.35 1.35 0 00.69 2.18l.54.14s-.81 1.95 0 2.76-.35 1 .34 2.13A6.47 6.47 0 0167 30a4 4 0 003 3.88c2.28.56 5.25-1 7.06-.89 3.26.11 8.1.56 8.1.56a7.14 7.14 0 012.52-7.7c4-3.06 6.38-13.69-1.15-18S69.4 2.87 68.88 6.84z" class="fill-skin"></path>
            <path d="M67.27 11s.47.89 2.5.38c3-.76 7.75-3.68 10.64-1.55s.75 8.67.75 8.67a1.67 1.67 0 00.35 2.28c1.23 1.07 2-4.43 4.49-3 2.29 1.35 1.56 5-.18 6.4s-.65 5.58-.65 5.58-.57-.92 3.31-3.79c2.88-2.14 6.25-7.08 4.82-14.9C92.15 4.76 86.74-.4 80.29 0c-9.73.66-14.53 7.13-13.02 11z" class="fill-color-2"></path>
            <path d="M70.07 17.94a.77.77 0 01.77-.76.76.76 0 01.76.76M85.14 29.67a.19.19 0 000 .11.6.6 0 010-.11z" class="fill-color-1"></path>
            <path d="M93.3 11.09A16 16 0 0090.61 5a15.42 15.42 0 00-12.53-2.6c-6.35 1.22-8.81 5.78-8.51 9h.2c3-.48 7.75-3.68 10.64-1.55 1.25.91 1.55 2.65 1.5 4.34a3.39 3.39 0 01.81 2.55c-.23 2.2-1.89 3.07-.67 4.12 1-.53 1.86-4.26 4-3 2.29 1.35 1.56 5-.18 6.4-1.58 1.26-.83 4.82-.68 5.47 0-.32.21-1.36 3.34-3.68 2.83-2.2 6.2-7.14 4.77-14.96z" class="fill-color-2-shadow"></path>
            <path d="M16.84 83.6a22.83 22.83 0 00-1.42 3.59C42.82 91 49.8 67.87 49.8 67.87 44.59 77.38 35.32 86 16.84 83.6z" class="fill-color-0"></path>
            <path d="M71.15 41.43l2.37-7.81 7.16-2.29-9.53 10.1z" class="fill-skin-shadow"></path>
        </g>
    </g>
</svg></svg><style>.class-0enojczih .fill-skin {
  fill: #f1d9b1;
}
.class-0enojczih .fill-skin-shadow {
  fill: #ebc78d;
}
.class-0enojczih .fill-hair {
  fill: #394351;
}
.class-0enojczih .fill-hair-shadow {
  fill: #333c49;
}
.class-0enojczih .fill-white {
  fill: #f0f0f0;
}
.class-0enojczih .fill-white-shadow {
  fill: #d8d8d8;
}
.class-0enojczih .fill-white-shadow-extra {
  fill: #c2c2c2;
}
.class-0enojczih .stop-color-white {
  stop-color: #f0f0f0;
}
.class-0enojczih .stop-color-white-shadow {
  stop-color: #d8d8d8;
}
.class-0enojczih .stop-color-white-shadow-extra {
  stop-color: #c2c2c2;
}
.class-0enojczih .stroke-white {
  stroke: #f0f0f0;
}
.class-0enojczih .stroke-white-shadow {
  stroke: #d8d8d8;
}
.class-0enojczih .stroke-white-shadow-extra {
  stroke: #b5b5b5;
}
.class-0enojczih .fill-yellow {
  fill: #f8cb12;
}
.class-0enojczih .fill-yellow-shadow {
  fill: #f1c307;
}
.class-0enojczih .fill-yellow-shadow-extra {
  fill: #e0b607;
}
.class-0enojczih .stop-color-yellow {
  stop-color: #f8cb12;
}
.class-0enojczih .stop-color-yellow-shadow {
  stop-color: #f1c307;
}
.class-0enojczih .stop-color-yellow-shadow-extra {
  stop-color: #e0b607;
}
.class-0enojczih .fill-green {
  fill: #598784;
}
.class-0enojczih .fill-green-shadow {
  fill: #507977;
}
.class-0enojczih .fill-green-shadow-extra {
  fill: #486d6b;
}
.class-0enojczih .stop-color-green {
  stop-color: #598784;
}
.class-0enojczih .stop-color-green-shadow {
  stop-color: #507977;
}
.class-0enojczih .stop-color-green-shadow-extra {
  stop-color: #486d6b;
}
.class-0enojczih .stroke-green {
  stroke: #598784;
}
.class-0enojczih .stroke-green-shadow {
  stroke: #507977;
}
.class-0enojczih .stroke-green-shadow-extra {
  stroke: #436564;
}
.class-0enojczih .fill-red {
  fill: #ce3827;
}
.class-0enojczih .fill-red-shadow {
  fill: #b93223;
}
.class-0enojczih .fill-red-shadow-extra {
  fill: #a62d1f;
}
.class-0enojczih .stop-color-red {
  stop-color: #ce3827;
}
.class-0enojczih .stop-color-red-shadow {
  stop-color: #b93223;
}
.class-0enojczih .stop-color-red-shadow-extra {
  stop-color: #a62d1f;
}
.class-0enojczih .fill-orange {
  fill: #f8cb12;
}
.class-0enojczih .fill-orange-shadow {
  fill: #e8bc07;
}
.class-0enojczih .fill-orange-shadow-extra {
  fill: #d0a906;
}
.class-0enojczih .stop-color-orange {
  stop-color: #f8cb12;
}
.class-0enojczih .stop-color-orange-shadow {
  stop-color: #e8bc07;
}
.class-0enojczih .stop-color-orange-shadow-extra {
  stop-color: #d0a906;
}
.class-0enojczih .fill-blue {
  fill: #3b7ded;
}
.class-0enojczih .fill-blue-shadow {
  fill: #1f6bea;
}
.class-0enojczih .fill-blue-shadow-extra {
  fill: #145eda;
}
.class-0enojczih .stop-color-blue {
  stop-color: #3b7ded;
}
.class-0enojczih .stop-color-blue-shadow {
  stop-color: #1f6bea;
}
.class-0enojczih .stop-color-blue-shadow-extra {
  stop-color: #145eda;
}
.class-0enojczih .fill-color-0 {
  fill: #394351;
}
.class-0enojczih .fill-color-0-shadow {
  fill: #333c49;
}
.class-0enojczih .fill-color-0-shadow-extra {
  fill: #2b323d;
}
.class-0enojczih .stop-color-color-0 {
  stop-color: #394351;
}
.class-0enojczih .fill-color-1 {
  fill: #a08a80;
}
.class-0enojczih .fill-color-1-shadow {
  fill: #937b6f;
}
.class-0enojczih .fill-color-1-shadow-extra {
  fill: #7b675d;
}
.class-0enojczih .fill-color-2 {
  fill: #598784;
}
.class-0enojczih .fill-color-2-shadow {
  fill: #507977;
}
.class-0enojczih .fill-color-2-shadow-extra {
  fill: #436564;
}
.class-0enojczih .fill-body-detail {
  fill: #ffffff;
}
.class-0enojczih .stroke-color-0 {
  stroke: #394351;
}
.class-0enojczih .stroke-color-0-shadow {
  stroke: #333c49;
}
.class-0enojczih .stroke-color-0-shadow-extra {
  stroke: #2b323d;
}
.class-0enojczih .stroke-color-1 {
  stroke: #a08a80;
}
.class-0enojczih .stroke-color-1-shadow {
  stroke: #937b6f;
}
.class-0enojczih .stroke-color-1-shadow-extra {
  stroke: #7b675d;
}
.class-0enojczih .stroke-color-2 {
  stroke: #598784;
}
.class-0enojczih .stroke-color-2-shadow {
  stroke: #507977;
}
.class-0enojczih .stroke-color-2-shadow-extra {
  stroke: #436564;
}</style></svg></g><g transform="matrix(2.0961646387564943,0,0,2.0961646387564925,279.5420996119076,138.64222004305344)"><svg xmlns="http://www.w3.org/2000/svg" version="1.1" xmlns:xlink="http://www.w3.org/1999/xlink" xmlns:svgjs="http://svgjs.com/svgjs" width="71.22" height="37.53"><svg xmlns="http://www.w3.org/2000/svg" version="1.1" xmlns:xlink="http://www.w3.org/1999/xlink" xmlns:svgjs="http://svgjs.com/svgjs" width="71.22" height="37.53" class="class-g3f6acicb"><svg xmlns="http://www.w3.org/2000/svg" viewBox="0 0 71.22 37.53" class="class-g3f6acicb">
    <g data-name="Layer 2">
        <g data-name="Layer 1">
            <path d="M53.89 18.77a18.77 18.77 0 01-37.53 0" class="fill-color-0"></path>
            <path d="M34.35 37.51h.78a18.76 18.76 0 0018.76-18.74H42.15a8.66 8.66 0 01.17 5.78L16.7 22.34a18.42 18.42 0 001.3 4.11c3.49.89 13 2.11 23.76 1.7.01 0-1.41 7.72-7.41 9.36z" class="fill-color-0-shadow"></path>
            <path d="M35.61 11.43C15.94 11.43 0 14.61 0 18.52s15.94 7.09 35.61 7.09 35.61-3.17 35.61-7.09-15.95-7.09-35.61-7.09zm0 10.47C19 21.9 5.52 19.79 5.52 17.18S19 12.45 35.61 12.45s30.08 2.12 30.08 4.73-13.47 4.72-30.08 4.72z" class="fill-color-1"></path>
            <path d="M42.84 11.58a9.88 9.88 0 00-1 1c13.6.45 23.81 2.35 23.81 4.62s-11.55 4.4-26.46 4.69a59.62 59.62 0 017.88 3.36c14-.95 24.11-3.59 24.11-6.71.04-3.44-12.18-6.3-28.34-6.96z" class="fill-color-1-shadow"></path>
            <path d="M53.89 18.77a18.77 18.77 0 10-37.53 0z" class="fill-color-0"></path>
            <path d="M49.31 6.49C46 3.91 41 1.15 36.34 3.21c-6.21 2.79 3.28 8.44 5.81 15.56h11.74a18.69 18.69 0 00-4.58-12.28z" class="fill-color-0-shadow"></path>
        </g>
    </g>
</svg></svg><style>.class-g3f6acicb .fill-skin {
  fill: #f1d9b1;
}
.class-g3f6acicb .fill-skin-shadow {
  fill: #ebc78d;
}
.class-g3f6acicb .fill-hair {
  fill: #598784;
}
.class-g3f6acicb .fill-hair-shadow {
  fill: #507977;
}
.class-g3f6acicb .fill-white {
  fill: #f0f0f0;
}
.class-g3f6acicb .fill-white-shadow {
  fill: #d8d8d8;
}
.class-g3f6acicb .fill-white-shadow-extra {
  fill: #c2c2c2;
}
.class-g3f6acicb .stop-color-white {
  stop-color: #f0f0f0;
}
.class-g3f6acicb .stop-color-white-shadow {
  stop-color: #d8d8d8;
}
.class-g3f6acicb .stop-color-white-shadow-extra {
  stop-color: #c2c2c2;
}
.class-g3f6acicb .stroke-white {
  stroke: #f0f0f0;
}
.class-g3f6acicb .stroke-white-shadow {
  stroke: #d8d8d8;
}
.class-g3f6acicb .stroke-white-shadow-extra {
  stroke: #b5b5b5;
}
.class-g3f6acicb .fill-yellow {
  fill: #f8cb12;
}
.class-g3f6acicb .fill-yellow-shadow {
  fill: #f1c307;
}
.class-g3f6acicb .fill-yellow-shadow-extra {
  fill: #e0b607;
}
.class-g3f6acicb .stop-color-yellow {
  stop-color: #f8cb12;
}
.class-g3f6acicb .stop-color-yellow-shadow {
  stop-color: #f1c307;
}
.class-g3f6acicb .stop-color-yellow-shadow-extra {
  stop-color: #e0b607;
}
.class-g3f6acicb .fill-green {
  fill: #598784;
}
.class-g3f6acicb .fill-green-shadow {
  fill: #507977;
}
.class-g3f6acicb .fill-green-shadow-extra {
  fill: #486d6b;
}
.class-g3f6acicb .stop-color-green {
  stop-color: #598784;
}
.class-g3f6acicb .stop-color-green-shadow {
  stop-color: #507977;
}
.class-g3f6acicb .stop-color-green-shadow-extra {
  stop-color: #486d6b;
}
.class-g3f6acicb .stroke-green {
  stroke: #598784;
}
.class-g3f6acicb .stroke-green-shadow {
  stroke: #507977;
}
.class-g3f6acicb .stroke-green-shadow-extra {
  stroke: #436564;
}
.class-g3f6acicb .fill-red {
  fill: #ce3827;
}
.class-g3f6acicb .fill-red-shadow {
  fill: #b93223;
}
.class-g3f6acicb .fill-red-shadow-extra {
  fill: #a62d1f;
}
.class-g3f6acicb .stop-color-red {
  stop-color: #ce3827;
}
.class-g3f6acicb .stop-color-red-shadow {
  stop-color: #b93223;
}
.class-g3f6acicb .stop-color-red-shadow-extra {
  stop-color: #a62d1f;
}
.class-g3f6acicb .fill-orange {
  fill: #f8cb12;
}
.class-g3f6acicb .fill-orange-shadow {
  fill: #e8bc07;
}
.class-g3f6acicb .fill-orange-shadow-extra {
  fill: #d0a906;
}
.class-g3f6acicb .stop-color-orange {
  stop-color: #f8cb12;
}
.class-g3f6acicb .stop-color-orange-shadow {
  stop-color: #e8bc07;
}
.class-g3f6acicb .stop-color-orange-shadow-extra {
  stop-color: #d0a906;
}
.class-g3f6acicb .fill-blue {
  fill: #3b7ded;
}
.class-g3f6acicb .fill-blue-shadow {
  fill: #1f6bea;
}
.class-g3f6acicb .fill-blue-shadow-extra {
  fill: #145eda;
}
.class-g3f6acicb .stop-color-blue {
  stop-color: #3b7ded;
}
.class-g3f6acicb .stop-color-blue-shadow {
  stop-color: #1f6bea;
}
.class-g3f6acicb .stop-color-blue-shadow-extra {
  stop-color: #145eda;
}
.class-g3f6acicb .fill-color-0 {
  fill: #598784;
}
.class-g3f6acicb .fill-color-0-shadow {
  fill: #507977;
}
.class-g3f6acicb .fill-color-0-shadow-extra {
  fill: #436564;
}
.class-g3f6acicb .stop-color-color-0 {
  stop-color: #598784;
}
.class-g3f6acicb .fill-color-1 {
  fill: #394351;
}
.class-g3f6acicb .fill-color-1-shadow {
  fill: #333c49;
}
.class-g3f6acicb .fill-color-1-shadow-extra {
  fill: #2b323d;
}
.class-g3f6acicb .fill-body-detail {
  fill: #ffffff;
}
.class-g3f6acicb .stroke-color-0 {
  stroke: #598784;
}
.class-g3f6acicb .stroke-color-0-shadow {
  stroke: #507977;
}
.class-g3f6acicb .stroke-color-0-shadow-extra {
  stroke: #436564;
}
.class-g3f6acicb .stroke-color-1 {
  stroke: #394351;
}
.class-g3f6acicb .stroke-color-1-shadow {
  stroke: #333c49;
}
.class-g3f6acicb .stroke-color-1-shadow-extra {
  stroke: #2b323d;
}</style></svg></g><g transform="matrix(1.1277891518950272,0,0,1.1277891518950272,453.8396660791491,253.90437859117293)"><svg xmlns="http://www.w3.org/2000/svg" version="1.1" xmlns:xlink="http://www.w3.org/1999/xlink" xmlns:svgjs="http://svgjs.com/svgjs" width="49.83" height="49.83"><svg xmlns="http://www.w3.org/2000/svg" version="1.1" xmlns:xlink="http://www.w3.org/1999/xlink" xmlns:svgjs="http://svgjs.com/svgjs" width="49.83" height="49.83" class="class-qg6gscy36"><svg xmlns="http://www.w3.org/2000/svg" viewBox="0 0 49.83 49.83" class="class-qg6gscy36">
    <g data-name="Layer 2">
        <g data-name="Layer 1">
            <path d="M48.83 24.92c0 13.76-10.15 24.91-23.91 24.91a24.92 24.92 0 110-49.83c13.76 0 23.91 11.16 23.91 24.92z" class="fill-color-0"></path>
            <path d="M44.56 29.24c0 11.36-8.38 20.56-19.73 20.56a20.56 20.56 0 010-41.12c11.35 0 19.73 9.21 19.73 20.56z" class="fill-color-0-shadow"></path>
            <path d="M10.5 23.34a5.25 5.25 0 019.9-2.44 6 6 0 10-6.27 7.44 5.26 5.26 0 01-3.63-5zM25.45 9.58a1.44 1.44 0 012.71-.67 1.64 1.64 0 10-1.71 2 1.43 1.43 0 01-1-1.33zM29.78 42.38c.92-.64 2-.69 2.43-.1a1.38 1.38 0 01-.21 1.58c.75-.72 1-1.64.62-2.22s-1.72-.62-2.78.12-1.48 1.8-1.1 2.49a2.16 2.16 0 011.04-1.87z" class="fill-color-0-shadow-extra"></path>
            <path d="M26.57 0a28 28 0 01-4.45 49.61 23.53 23.53 0 002.8.16A24.91 24.91 0 0026.57 0z" class="fill-color-0-shadow-extra"></path>
        </g>
    </g>
</svg></svg><style>.class-qg6gscy36 .fill-skin {
  fill: #f1d9b1;
}
.class-qg6gscy36 .fill-skin-shadow {
  fill: #ebc78d;
}
.class-qg6gscy36 .fill-hair {
  fill: #598784;
}
.class-qg6gscy36 .fill-hair-shadow {
  fill: #507977;
}
.class-qg6gscy36 .fill-white {
  fill: #f0f0f0;
}
.class-qg6gscy36 .fill-white-shadow {
  fill: #d8d8d8;
}
.class-qg6gscy36 .fill-white-shadow-extra {
  fill: #c2c2c2;
}
.class-qg6gscy36 .stop-color-white {
  stop-color: #f0f0f0;
}
.class-qg6gscy36 .stop-color-white-shadow {
  stop-color: #d8d8d8;
}
.class-qg6gscy36 .stop-color-white-shadow-extra {
  stop-color: #c2c2c2;
}
.class-qg6gscy36 .stroke-white {
  stroke: #f0f0f0;
}
.class-qg6gscy36 .stroke-white-shadow {
  stroke: #d8d8d8;
}
.class-qg6gscy36 .stroke-white-shadow-extra {
  stroke: #b5b5b5;
}
.class-qg6gscy36 .fill-yellow {
  fill: #f8cb12;
}
.class-qg6gscy36 .fill-yellow-shadow {
  fill: #f1c307;
}
.class-qg6gscy36 .fill-yellow-shadow-extra {
  fill: #e0b607;
}
.class-qg6gscy36 .stop-color-yellow {
  stop-color: #f8cb12;
}
.class-qg6gscy36 .stop-color-yellow-shadow {
  stop-color: #f1c307;
}
.class-qg6gscy36 .stop-color-yellow-shadow-extra {
  stop-color: #e0b607;
}
.class-qg6gscy36 .fill-green {
  fill: #598784;
}
.class-qg6gscy36 .fill-green-shadow {
  fill: #507977;
}
.class-qg6gscy36 .fill-green-shadow-extra {
  fill: #486d6b;
}
.class-qg6gscy36 .stop-color-green {
  stop-color: #598784;
}
.class-qg6gscy36 .stop-color-green-shadow {
  stop-color: #507977;
}
.class-qg6gscy36 .stop-color-green-shadow-extra {
  stop-color: #486d6b;
}
.class-qg6gscy36 .stroke-green {
  stroke: #598784;
}
.class-qg6gscy36 .stroke-green-shadow {
  stroke: #507977;
}
.class-qg6gscy36 .stroke-green-shadow-extra {
  stroke: #436564;
}
.class-qg6gscy36 .fill-red {
  fill: #ce3827;
}
.class-qg6gscy36 .fill-red-shadow {
  fill: #b93223;
}
.class-qg6gscy36 .fill-red-shadow-extra {
  fill: #a62d1f;
}
.class-qg6gscy36 .stop-color-red {
  stop-color: #ce3827;
}
.class-qg6gscy36 .stop-color-red-shadow {
  stop-color: #b93223;
}
.class-qg6gscy36 .stop-color-red-shadow-extra {
  stop-color: #a62d1f;
}
.class-qg6gscy36 .fill-orange {
  fill: #f8cb12;
}
.class-qg6gscy36 .fill-orange-shadow {
  fill: #e8bc07;
}
.class-qg6gscy36 .fill-orange-shadow-extra {
  fill: #d0a906;
}
.class-qg6gscy36 .stop-color-orange {
  stop-color: #f8cb12;
}
.class-qg6gscy36 .stop-color-orange-shadow {
  stop-color: #e8bc07;
}
.class-qg6gscy36 .stop-color-orange-shadow-extra {
  stop-color: #d0a906;
}
.class-qg6gscy36 .fill-blue {
  fill: #3b7ded;
}
.class-qg6gscy36 .fill-blue-shadow {
  fill: #1f6bea;
}
.class-qg6gscy36 .fill-blue-shadow-extra {
  fill: #145eda;
}
.class-qg6gscy36 .stop-color-blue {
  stop-color: #3b7ded;
}
.class-qg6gscy36 .stop-color-blue-shadow {
  stop-color: #1f6bea;
}
.class-qg6gscy36 .stop-color-blue-shadow-extra {
  stop-color: #145eda;
}
.class-qg6gscy36 .fill-color-0 {
  fill: #598784;
}
.class-qg6gscy36 .fill-color-0-shadow {
  fill: #507977;
}
.class-qg6gscy36 .fill-color-0-shadow-extra {
  fill: #436564;
}
.class-qg6gscy36 .stop-color-color-0 {
  stop-color: #598784;
}
.class-qg6gscy36 .fill-body-detail {
  fill: #ffffff;
}
.class-qg6gscy36 .stroke-color-0 {
  stroke: #598784;
}
.class-qg6gscy36 .stroke-color-0-shadow {
  stroke: #507977;
}
.class-qg6gscy36 .stroke-color-0-shadow-extra {
  stroke: #436564;
}</style></svg></g><g transform="matrix(0.45837660562995364,0,0,0.45837660562995364,362.63056314244875,294.63969205988786)"><svg xmlns="http://www.w3.org/2000/svg" version="1.1" xmlns:xlink="http://www.w3.org/1999/xlink" xmlns:svgjs="http://svgjs.com/svgjs" width="66.14" height="73.18"><svg xmlns="http://www.w3.org/2000/svg" version="1.1" xmlns:xlink="http://www.w3.org/1999/xlink" xmlns:svgjs="http://svgjs.com/svgjs" width="66.14" height="73.18" class="class-rsr41duie"><svg xmlns="http://www.w3.org/2000/svg" viewBox="0 0 66.14 73.18" class="class-rsr41duie">
    <g data-name="Layer 2">
        <g data-name="Layer 1">
            <path d="M11.4 46.63a38.42 38.42 0 0154.74-34.75 38.39 38.39 0 10-44.08 61.28A38.22 38.22 0 0111.4 46.63z" class="fill-white"></path>
            <path d="M30.48.86s8.9.38 5.29 4S18 10.73 13.94 32.93c0 0 14.68-35.19 52.2-21 0-.03-11.9-15.71-35.66-11.07zM12.49 55.72s.45 10.15-6.37 3.5c0 0 5.62 9.74 15.94 14 0-.04-6.98-8.09-9.57-17.5z" class="fill-white-shadow"></path>
        </g>
    </g>
</svg></svg><style>.class-rsr41duie .fill-skin {
  fill: #f1d9b1;
}
.class-rsr41duie .fill-skin-shadow {
  fill: #ebc78d;
}
.class-rsr41duie .fill-white {
  fill: #f0f0f0;
}
.class-rsr41duie .fill-white-shadow {
  fill: #d8d8d8;
}
.class-rsr41duie .fill-white-shadow-extra {
  fill: #c2c2c2;
}
.class-rsr41duie .stop-color-white {
  stop-color: #f0f0f0;
}
.class-rsr41duie .stop-color-white-shadow {
  stop-color: #d8d8d8;
}
.class-rsr41duie .stop-color-white-shadow-extra {
  stop-color: #c2c2c2;
}
.class-rsr41duie .stroke-white {
  stroke: #f0f0f0;
}
.class-rsr41duie .stroke-white-shadow {
  stroke: #d8d8d8;
}
.class-rsr41duie .stroke-white-shadow-extra {
  stroke: #b5b5b5;
}
.class-rsr41duie .fill-yellow {
  fill: #f8cb12;
}
.class-rsr41duie .fill-yellow-shadow {
  fill: #f1c307;
}
.class-rsr41duie .fill-yellow-shadow-extra {
  fill: #e0b607;
}
.class-rsr41duie .stop-color-yellow {
  stop-color: #f8cb12;
}
.class-rsr41duie .stop-color-yellow-shadow {
  stop-color: #f1c307;
}
.class-rsr41duie .stop-color-yellow-shadow-extra {
  stop-color: #e0b607;
}
.class-rsr41duie .fill-green {
  fill: #598784;
}
.class-rsr41duie .fill-green-shadow {
  fill: #507977;
}
.class-rsr41duie .fill-green-shadow-extra {
  fill: #486d6b;
}
.class-rsr41duie .stop-color-green {
  stop-color: #598784;
}
.class-rsr41duie .stop-color-green-shadow {
  stop-color: #507977;
}
.class-rsr41duie .stop-color-green-shadow-extra {
  stop-color: #486d6b;
}
.class-rsr41duie .stroke-green {
  stroke: #598784;
}
.class-rsr41duie .stroke-green-shadow {
  stroke: #507977;
}
.class-rsr41duie .stroke-green-shadow-extra {
  stroke: #436564;
}
.class-rsr41duie .fill-red {
  fill: #ce3827;
}
.class-rsr41duie .fill-red-shadow {
  fill: #b93223;
}
.class-rsr41duie .fill-red-shadow-extra {
  fill: #a62d1f;
}
.class-rsr41duie .stop-color-red {
  stop-color: #ce3827;
}
.class-rsr41duie .stop-color-red-shadow {
  stop-color: #b93223;
}
.class-rsr41duie .stop-color-red-shadow-extra {
  stop-color: #a62d1f;
}
.class-rsr41duie .fill-orange {
  fill: #f8cb12;
}
.class-rsr41duie .fill-orange-shadow {
  fill: #e8bc07;
}
.class-rsr41duie .fill-orange-shadow-extra {
  fill: #d0a906;
}
.class-rsr41duie .stop-color-orange {
  stop-color: #f8cb12;
}
.class-rsr41duie .stop-color-orange-shadow {
  stop-color: #e8bc07;
}
.class-rsr41duie .stop-color-orange-shadow-extra {
  stop-color: #d0a906;
}
.class-rsr41duie .fill-blue {
  fill: #3b7ded;
}
.class-rsr41duie .fill-blue-shadow {
  fill: #1f6bea;
}
.class-rsr41duie .fill-blue-shadow-extra {
  fill: #145eda;
}
.class-rsr41duie .stop-color-blue {
  stop-color: #3b7ded;
}
.class-rsr41duie .stop-color-blue-shadow {
  stop-color: #1f6bea;
}
.class-rsr41duie .stop-color-blue-shadow-extra {
  stop-color: #145eda;
}
.class-rsr41duie .fill-body-detail {
  fill: #ffffff;
}</style></svg></g></svg>